# xmcd CD database file
#
# Track frame offsets:
#	182
#	9455
#	25200
#	35732
#	50227
#	64082
#	79907
#	92282
#	103195
#	112737
#	124440
#	137470
#	148777
#	160607
#
# Disc length: 2322 seconds
#
# Revision: 2
# Processed by: cddbd v1.5.2PL0 Copyright (c) Steve Scherf et al.
# Submitted via: CDex 1.70beta2
#
DISCID=b909100e
DTITLE=Frank Sinatra - The Christmas Album
DYEAR=1987
DGENRE=Jazz
TTITLE0=Jingle Bells
TTITLE1=The Christmas Song
TTITLE2=Mistletoe And Holly
TTITLE3=I'll Be Home For Christmas
TTITLE4=The Christmas Waltz
TTITLE5=Have Yourself A Merry Little Christmas
TTITLE6=The First Noel
TTITLE7=Hark! The Herald Angels Sing
TTITLE8=O Little Town Of Bethlehem
TTITLE9=Adeste Fields
TTITLE10=It Came Upon A Midnight Clear
TTITLE11=Silent Night
TTITLE12=White Christmas (Unreleased)
TTITLE13=The Christmas Waltz (Urealeased)
EXTD=YEAR: 1987
EXTT0=
EXTT1=
EXTT2=
EXTT3=
EXTT4=
EXTT5=
EXTT6=
EXTT7=
EXTT8=
EXTT9=
EXTT10=
EXTT11=
EXTT12=
EXTT13=
PLAYORDER=
